<?xml version="1.0" encoding="UTF-8"?>
<svg id="Layer_1" xmlns="http://www.w3.org/2000/svg" version="1.1" viewBox="0 0 154 32">
  <!-- Generator: Adobe Illustrator 29.8.2, SVG Export Plug-In . SVG Version: 2.1.1 Build 3)  -->
  <defs>
    <style>
      .st0 {
        font-family: MS-UIGothic, 'MS UI Gothic';
        font-size: 26px;
      }

      .st1, .st2, .st3 {
        fill: #fff;
      }

      .st2 {
        fill-opacity: .9;
      }

      .st4 {
        fill: #101828;
      }

      .st5 {
        fill: #465fff;
      }

      .st3 {
        fill-opacity: .7;
      }
    </style>
  </defs>
  <path class="st5" d="M0,8.42C0,3.77,3.77,0,8.42,0h15.16C28.23,0,32,3.77,32,8.42v15.16c0,4.65-3.77,8.42-8.42,8.42h-15.16c-4.65,0-8.42-3.77-8.42-8.42v-15.16Z"/>
  <path class="st1" d="M8.42,8.42c0-.93.75-1.68,1.68-1.68h0c.93,0,1.68.75,1.68,1.68v15.16c0,.93-.75,1.68-1.68,1.68h0c-.93,0-1.68-.75-1.68-1.68v-15.16Z"/>
  <path class="st2" d="M14.74,15.16c0-.93.75-1.68,1.68-1.68h0c.93,0,1.68.75,1.68,1.68v8.42c0,.93-.75,1.68-1.68,1.68h0c-.93,0-1.68-.75-1.68-1.68v-8.42Z" shape-rendering="crispEdges"/>
  <path class="st3" d="M21.05,10.95c0-.93.75-1.68,1.68-1.68h0c.93,0,1.68.75,1.68,1.68v12.63c0,.93-.75,1.68-1.68,1.68h0c-.93,0-1.68-.75-1.68-1.68v-12.63Z" shape-rendering="crispEdges"/>
  <path class="st4" d="M44,10.11h5.09v14.58h3.04v-14.58h5.09v-2.81h-13.22v2.81Z"/>
  <path class="st4" d="M60.62,25c1.83,0,3.42-.83,3.92-2.04l.21,1.74h2.54v-7.13c0-3.26-1.95-4.97-5.11-4.97s-5.28,1.66-5.28,4.21h2.47c0-1.24.95-1.95,2.66-1.95,1.47,0,2.43.64,2.43,2.24v.26l-3.52.26c-2.78.21-4.35,1.57-4.35,3.73s1.52,3.66,4.02,3.66ZM61.57,22.81c-1.31,0-2.02-.52-2.02-1.59,0-.95.69-1.55,2.5-1.71l2.45-.19v.62c0,1.81-1.14,2.88-2.92,2.88Z"/>
  <path class="st4" d="M71.6,10.59c.95,0,1.74-.78,1.74-1.76s-.78-1.74-1.74-1.74c-1,0-1.78.76-1.78,1.74s.78,1.76,1.78,1.76ZM70.15,24.69h2.9v-11.75h-2.9v11.75Z"/>
  <path class="st4" d="M78.97,24.69V7h-2.88v17.69h2.88Z"/>
  <path class="st4" d="M83.94,24.69l1.4-4.02h6.49l1.4,4.02h3.21l-6.28-17.38h-3.11l-6.28,17.38h3.16ZM88.22,12.49c.17-.48.31-1,.38-1.33.05.36.21.88.36,1.33l2,5.61h-4.71l1.97-5.61Z"/>
  <path class="st4" d="M102.49,25c1.78,0,3.31-.78,4.02-2.14l.19,1.83h2.66V7h-2.88v7.44c-.74-1.17-2.19-1.85-3.83-1.85-3.54,0-5.68,2.62-5.68,6.28s2.12,6.13,5.52,6.13ZM103.14,22.34c-2.02,0-3.26-1.47-3.26-3.57s1.24-3.59,3.26-3.59,3.33,1.47,3.33,3.59-1.31,3.57-3.33,3.57Z"/>
  <path class="st4" d="M115.29,24.69v-6.66c0-1.9,1.12-2.81,2.5-2.81s2.26.88,2.26,2.52v6.94h2.9v-6.66c0-1.93,1.07-2.83,2.47-2.83s2.28.88,2.28,2.57v6.92h2.88v-7.68c0-2.71-1.57-4.42-4.42-4.42-1.78,0-3.16.88-3.76,2.24-.62-1.36-1.86-2.24-3.64-2.24-1.69,0-2.88.76-3.47,1.74l-.24-1.38h-2.66v11.75h2.9Z"/>
  <path class="st4" d="M134.88,10.59c.95,0,1.74-.78,1.74-1.76s-.79-1.74-1.74-1.74c-1,0-1.78.76-1.78,1.74s.78,1.76,1.78,1.76ZM133.43,24.69h2.9v-11.75h-2.9v11.75Z"/>
  <path class="st4" d="M142.23,24.69v-6.33c0-1.9,1.09-3.14,2.88-3.14,1.5,0,2.47.95,2.47,2.92v6.54h2.9v-7.23c0-3.04-1.52-4.87-4.47-4.87-1.59,0-3.02.69-3.76,1.88l-.24-1.52h-2.69v11.75h2.9Z"/>
  <rect class="st1" x="42.26" y="6.74" width="111.74" height="25.26"/>
  <text class="st0" transform="translate(36.47 20.94)"><tspan x="0" y="0">FITNESS</tspan></text>
</svg>